<?xml version="1.0" encoding="utf-8"?>
<!-- Generator: Adobe Illustrator 25.0.1, SVG Export Plug-In . SVG Version: 6.00 Build 0)  -->
<svg version="1.1" id="Layer_1" xmlns="http://www.w3.org/2000/svg" xmlns:xlink="http://www.w3.org/1999/xlink" x="0px" y="0px"
	 viewBox="0 0 640 480" style="enable-background:new 0 0 640 480;" xml:space="preserve">
<style type="text/css">
	.st0{fill:url(#SVGID_1_);}
	.st1{fill:url(#SVGID_2_);}
	.st2{fill:url(#SVGID_3_);}
	.st3{fill:url(#SVGID_4_);}
	.st4{fill:url(#SVGID_5_);}
	.st5{fill:url(#SVGID_6_);}
</style>
<g transform="matrix( 1, 0, 0, 1, 333,139.3) ">
	<g transform="matrix( 1, 0, 0, 1, 0,0) ">
		<g>
			<g id="piece_0_Layer1_0_FILL">
				
					<radialGradient id="SVGID_1_" cx="-342.7238" cy="322.7101" r="111.37" gradientTransform="matrix(0.4072 0 0 -0.2302 45.1542 76.6462)" gradientUnits="userSpaceOnUse">
					<stop  offset="7.058823e-02" style="stop-color:#FFFFFF"/>
					<stop  offset="0.5176" style="stop-color:#D4D4D4"/>
					<stop  offset="1" style="stop-color:#000000"/>
				</radialGradient>
				<path class="st0" d="M-69.2,11.4c-0.5-10-1.5-15.9-3.1-17.9c-6.9-6.4-12.6-10.9-17-13.3c5.3,7.2,6,22.8,2.1,46.7
					C-78,22.3-72,17.2-69.2,11.4z"/>
			</g>
		</g>
	</g>
</g>
<g transform="matrix( 0.5, 0.86602783203125, -0.86602783203125, 0.5, 377.75,217.25) ">
	<g transform="matrix( 1, 0, 0, 1, 0,0) ">
		<g>
			<g id="piece_0_Layer1_0_FILL_1_">
				
					<radialGradient id="SVGID_2_" cx="-141.8057" cy="228.4648" r="111.37" gradientTransform="matrix(0.2036 -0.1993 -0.3527 -0.1151 -10.4085 85.705)" gradientUnits="userSpaceOnUse">
					<stop  offset="7.058823e-02" style="stop-color:#FFFFFF"/>
					<stop  offset="0.5176" style="stop-color:#D4D4D4"/>
					<stop  offset="1" style="stop-color:#000000"/>
				</radialGradient>
				<path class="st1" d="M-94.7,96.7c-0.5-10-1.5-15.9-3.1-17.9c-6.9-6.4-12.6-10.9-17-13.3c5.3,7.2,6,22.8,2.1,46.7
					C-103.4,107.7-97.5,102.5-94.7,96.7z"/>
			</g>
		</g>
	</g>
</g>
<g transform="matrix( -0.5, 0.86602783203125, -0.86602783203125, -0.5, 332.85,295.3) ">
	<g transform="matrix( 1, 0, 0, 1, 0,0) ">
		<g>
			<g id="piece_0_Layer1_0_FILL_2_">
				
					<radialGradient id="SVGID_3_" cx="-6.9733" cy="50.8072" r="111.37" gradientTransform="matrix(-0.2036 -0.1993 -0.3527 0.1151 -42.2993 145.3549)" gradientUnits="userSpaceOnUse">
					<stop  offset="7.058823e-02" style="stop-color:#FFFFFF"/>
					<stop  offset="0.5176" style="stop-color:#D4D4D4"/>
					<stop  offset="1" style="stop-color:#000000"/>
				</radialGradient>
				<path class="st2" d="M-33.6,161.7c-0.5-10-1.5-15.9-3.1-17.9c-6.9-6.4-12.6-10.9-17-13.3c5.3,7.2,6,22.8,2.1,46.7
					C-42.4,172.6-36.4,167.4-33.6,161.7z"/>
			</g>
		</g>
	</g>
</g>
<g transform="matrix( -1, 0, 0, -1, 242.95,295.35) ">
	<g transform="matrix( 1, 0, 0, 1, 0,0) ">
		<g>
			<g id="piece_0_Layer1_0_FILL_3_">
				
					<radialGradient id="SVGID_4_" cx="-114.06" cy="-277.0431" r="111.37" gradientTransform="matrix(-0.4072 0 0 0.2302 -18.4111 195.8808)" gradientUnits="userSpaceOnUse">
					<stop  offset="7.058823e-02" style="stop-color:#FFFFFF"/>
					<stop  offset="0.5176" style="stop-color:#D4D4D4"/>
					<stop  offset="1" style="stop-color:#000000"/>
				</radialGradient>
				<path class="st3" d="M53.2,141.2c-0.5-10-1.5-15.9-3.1-17.9c-6.9-6.4-12.6-10.9-17-13.3c5.3,7.2,6,22.8,2.1,46.7
					C44.5,152.1,50.4,146.9,53.2,141.2z"/>
			</g>
		</g>
	</g>
</g>
<g transform="matrix( -0.5, -0.86602783203125, 0.86602783203125, -0.5, 198.2,217.35) ">
	<g transform="matrix( 1, 0, 0, 1, 0,0) ">
		<g>
			<g id="piece_0_Layer1_0_FILL_4_">
				
					<radialGradient id="SVGID_5_" cx="-546.99" cy="-269.4737" r="111.37" gradientTransform="matrix(-0.2036 0.1993 0.3527 0.1151 37.3661 186.5339)" gradientUnits="userSpaceOnUse">
					<stop  offset="7.058823e-02" style="stop-color:#FFFFFF"/>
					<stop  offset="0.5176" style="stop-color:#D4D4D4"/>
					<stop  offset="1" style="stop-color:#000000"/>
				</radialGradient>
				<path class="st4" d="M78.9,55.6c-0.5-10-1.5-15.9-3.1-17.9c-6.9-6.4-12.6-10.9-17-13.3c5.3,7.2,6,22.8,2.1,46.7
					C70.1,66.5,76.1,61.3,78.9,55.6z"/>
			</g>
		</g>
	</g>
</g>
<g transform="matrix( 0.5, -0.86602783203125, 0.86602783203125, 0.5, 242.85,139.35) ">
	<g transform="matrix( 1, 0, 0, 1, 0,0) ">
		<g>
			<g id="piece_0_Layer1_0_FILL_5_">
				
					<radialGradient id="SVGID_6_" cx="-640.5959" cy="152.879" r="111.37" gradientTransform="matrix(0.2036 0.1993 0.3527 -0.1151 68.9366 127.0931)" gradientUnits="userSpaceOnUse">
					<stop  offset="7.058823e-02" style="stop-color:#FFFFFF"/>
					<stop  offset="0.5176" style="stop-color:#D4D4D4"/>
					<stop  offset="1" style="stop-color:#000000"/>
				</radialGradient>
				<path class="st5" d="M17.6-9.1c-0.5-10-1.5-15.9-3.1-17.9c-6.9-6.4-12.6-10.9-17-13.3c5.3,7.2,6,22.8,2.1,46.7
					C8.8,1.8,14.8-3.4,17.6-9.1z"/>
			</g>
		</g>
	</g>
</g>
</svg>
